<?xml version="1.0" ?><svg viewBox="0 0 22.58 22.59" xmlns="http://www.w3.org/2000/svg"><defs><style>.cls-1{fill:#1a171b;}</style></defs><g data-name="Layer 2" id="Layer_2"><g data-name="Layer 1" id="Layer_1-2"><path class="cls-1" d="M7.368,16.43h2.1a.342.342,0,1,1,0,.684h-2.1A.342.342,0,0,1,7.368,16.43Zm-4.744.684H5.542a.342.342,0,0,0,0-.684H2.624A.342.342,0,0,0,2.624,17.114Zm8.383,2.736h-9.3A1.714,1.714,0,0,1,0,18.139V2.624A1.714,1.714,0,0,1,1.711.912H2.825C2.843.625,2.706,0,3.167,0s.324.624.342.912H6.042C6.06.625,5.923,0,6.384,0s.324.624.342.912H9.259C9.277.625,9.141,0,9.6,0s.324.624.343.912h2.532C12.494.625,12.358,0,12.818,0s.325.624.343.912h2.532C15.711.625,15.575,0,16.036,0s.324.624.342.912h1.3a1.713,1.713,0,0,1,1.711,1.712V9.976a.342.342,0,0,1-.684,0V4.792H.685V18.139a1.028,1.028,0,0,0,1.026,1.027h9.3A.342.342,0,0,1,11.007,19.85ZM.685,4.107H18.71V2.624A1.029,1.029,0,0,0,17.683,1.6h-1.3c-.018.287.119.915-.342.913s-.324-.625-.343-.913H13.161c-.018.287.119.915-.342.913s-.324-.625-.343-.913H9.944c-.019.287.119.915-.343.913s-.323-.625-.342-.913H6.726c-.018.287.119.915-.342.913S6.06,1.885,6.042,1.6H3.509c-.018.287.119.915-.342.913s-.324-.625-.342-.913H1.711A1.028,1.028,0,0,0,.685,2.624ZM7.357,7.53a.342.342,0,0,0,0-.684A.342.342,0,0,0,7.357,7.53ZM9.7,6.846a.342.342,0,0,0,0,.684A.342.342,0,0,0,9.7,6.846Zm2.336,0a.342.342,0,0,0,0,.684A.342.342,0,0,0,12.034,6.846Zm4.678,0a.342.342,0,0,0,0,.684A.342.342,0,0,0,16.712,6.846Zm-2.337,0a.342.342,0,0,0,0,.684A.342.342,0,0,0,14.375,6.846ZM12.034,9.128a.342.342,0,0,0,0,.684A.342.342,0,0,0,12.034,9.128Zm2.341,0a.342.342,0,0,0,0,.684A.342.342,0,0,0,14.375,9.128Zm-4.677,0a.342.342,0,0,0,0,.684A.342.342,0,0,0,9.7,9.128Zm7.014,0a.342.342,0,0,0,0,.684A.342.342,0,0,0,16.712,9.128ZM5.02,9.812a.342.342,0,0,0,0-.684A.342.342,0,0,0,5.02,9.812Zm2.337,0a.342.342,0,0,0,0-.684A.342.342,0,0,0,7.357,9.812Zm-4.678,0a.342.342,0,0,0,0-.684A.342.342,0,0,0,2.679,9.812Zm7.361,1.94a.342.342,0,0,0-.684,0A.342.342,0,0,0,10.04,11.752Zm-7.361.342a.343.343,0,0,0,0-.685A.343.343,0,0,0,2.679,12.094Zm4.678,0a.343.343,0,0,0,0-.685A.343.343,0,0,0,7.357,12.094Zm-2.337,0a.343.343,0,0,0,0-.685A.343.343,0,0,0,5.02,12.094Zm2.337,2.281a.342.342,0,0,0,0-.684A.342.342,0,0,0,7.357,14.375Zm-2.337,0a.342.342,0,0,0,0-.684A.342.342,0,0,0,5.02,14.375Zm-2.341,0a.342.342,0,0,0,0-.684A.342.342,0,0,0,2.679,14.375Zm17.275,7.887a.87.87,0,0,1-.939.288.914.914,0,0,1-.636-.8c-.23-2.528-1.231-3.832-1.608-3.832s-1.377,1.3-1.608,3.833a.908.908,0,0,1-.9.834.873.873,0,0,1-.677-.326,13.614,13.614,0,0,1-2.62-7.178c-.333-3.672,3-5.315,5.874-3.141,1.1-.817,3.264-1.7,4.807-.027C23.874,14.705,21.624,20.13,19.954,22.262Zm-2.535-9.883a7.546,7.546,0,0,1,.706.652c.307.32-.207.8-.5.465-.437-.547-3.439-3.1-5.236-1.105-1.914,2.376.293,7.678,1.732,9.437.137.139.323.092.363-.135.225-2.457,1.252-4.456,2.29-4.456s2.066,2,2.29,4.455a.223.223,0,0,0,.155.2.189.189,0,0,0,.209-.067,12.913,12.913,0,0,0,2.467-6.8C22.079,11.837,19.586,10.806,17.419,12.379Zm-2.4.643c-1.98-.459-2.437,1.593-2.068,3.077a.342.342,0,1,0,.673-.126c-.091-.694-.281-1.645.324-2.148a1.041,1.041,0,0,1,.893-.142A.342.342,0,0,0,15.022,13.022Z" data-name="scheduling dental" id="scheduling_dental"/></g></g></svg>