<?xml version="1.0" ?><svg viewBox="0 0 22.59 22.59" xmlns="http://www.w3.org/2000/svg"><defs><style>.cls-1{fill:#1a171b;}</style></defs><g data-name="Layer 2" id="Layer_2"><g data-name="Layer 1" id="Layer_1-2"><path class="cls-1" d="M21.7,9.583H20.517a9.351,9.351,0,0,0-.381-1.416l1.025-.593a.893.893,0,0,0,.326-1.215l-.822-1.423A.89.89,0,0,0,19.45,4.61L18.422,5.2a9.384,9.384,0,0,0-1.036-1.036l.594-1.028a.891.891,0,0,0-.326-1.215L16.23,1.1a.892.892,0,0,0-1.215.325l-.592,1.026a9.247,9.247,0,0,0-1.417-.381V.89a.891.891,0,0,0-.89-.89H10.473a.89.89,0,0,0-.889.89V2.073a9.216,9.216,0,0,0-1.417.381L7.574,1.428A.89.89,0,0,0,6.359,1.1l-1.423.821A.894.894,0,0,0,4.61,3.139L5.2,4.167A9.471,9.471,0,0,0,4.167,5.2L3.139,4.61a.891.891,0,0,0-1.215.326L1.1,6.359a.893.893,0,0,0,.325,1.215l1.026.593a9.351,9.351,0,0,0-.381,1.416H.89a.891.891,0,0,0-.89.89v1.643a.891.891,0,0,0,.89.89H2.073a9.331,9.331,0,0,0,.381,1.417l-1.025.593A.892.892,0,0,0,1.1,16.231l.821,1.423a.892.892,0,0,0,1.216.325l1.027-.593A9.393,9.393,0,0,0,5.2,18.422L4.61,19.45a.894.894,0,0,0,.326,1.216l1.423.821a.893.893,0,0,0,1.215-.325l.593-1.026a9.216,9.216,0,0,0,1.417.381V21.7a.89.89,0,0,0,.889.89h1.643a.891.891,0,0,0,.89-.89V20.517a9.247,9.247,0,0,0,1.417-.381l.592,1.026a.893.893,0,0,0,1.215.325l1.424-.821a.9.9,0,0,0,.326-1.216l-.594-1.028a9.3,9.3,0,0,0,1.036-1.036l1.028.593a.893.893,0,0,0,1.215-.325l.822-1.423a.89.89,0,0,0-.326-1.215l-1.025-.593a9.363,9.363,0,0,0,.381-1.417H21.7a.891.891,0,0,0,.89-.89V10.473A.892.892,0,0,0,21.7,9.583Zm.205,2.533a.2.2,0,0,1-.205.205H20.227a.342.342,0,0,0-.338.291A8.6,8.6,0,0,1,19.4,14.45a.342.342,0,0,0,.148.421l1.276.737a.206.206,0,0,1,.075.281l-.821,1.423a.209.209,0,0,1-.281.075l-1.277-.738a.34.34,0,0,0-.438.082,8.747,8.747,0,0,1-1.347,1.346.342.342,0,0,0-.081.438l.738,1.277a.208.208,0,0,1-.076.281l-1.423.821a.2.2,0,0,1-.28-.075l-.737-1.276a.344.344,0,0,0-.421-.148,8.6,8.6,0,0,1-1.837.494.342.342,0,0,0-.291.339V21.7a.205.205,0,0,1-.206.205H10.473a.205.205,0,0,1-.205-.205V20.228a.343.343,0,0,0-.291-.339,12.1,12.1,0,0,1-1.962-.517.339.339,0,0,0-.3.171l-.737,1.276a.207.207,0,0,1-.281.075l-1.423-.821a.207.207,0,0,1-.075-.281l.738-1.277a.344.344,0,0,0-.082-.438,8.741,8.741,0,0,1-1.346-1.346.341.341,0,0,0-.438-.082L2.8,17.387a.205.205,0,0,1-.28-.075L1.7,15.889a.206.206,0,0,1,.076-.281l1.276-.737A.344.344,0,0,0,3.2,14.45,8.563,8.563,0,0,1,2.7,12.612a.344.344,0,0,0-.339-.291H.89a.2.2,0,0,1-.2-.205V10.473a.205.205,0,0,1,.2-.205H2.362A.344.344,0,0,0,2.7,9.977,8.6,8.6,0,0,1,3.2,8.139a.344.344,0,0,0-.148-.421L1.77,6.982A.208.208,0,0,1,1.7,6.7l.822-1.423A.205.205,0,0,1,2.8,5.2l1.277.738a.342.342,0,0,0,.438-.082A8.7,8.7,0,0,1,5.859,4.513a.344.344,0,0,0,.082-.438L5.2,2.8a.207.207,0,0,1,.075-.281L6.7,1.7a.205.205,0,0,1,.281.076l.737,1.276a.342.342,0,0,0,.42.148A8.61,8.61,0,0,1,9.977,2.7a.343.343,0,0,0,.291-.339V.89a.206.206,0,0,1,.205-.206h1.643a.206.206,0,0,1,.206.206V2.362a.342.342,0,0,0,.291.339A8.6,8.6,0,0,1,14.45,3.2a.344.344,0,0,0,.421-.148l.737-1.276a.207.207,0,0,1,.281-.076l1.422.822a.208.208,0,0,1,.076.281l-.738,1.277a.342.342,0,0,0,.081.438,8.7,8.7,0,0,1,1.347,1.346.342.342,0,0,0,.438.082L19.792,5.2a.208.208,0,0,1,.281.075L20.894,6.7a.208.208,0,0,1-.075.281l-1.276.736a.343.343,0,0,0-.148.421,8.626,8.626,0,0,1,.494,1.838.342.342,0,0,0,.338.291H21.7a.205.205,0,0,1,.205.205ZM11.373,6.557C8.273,4.2,4.684,5.948,5.037,9.923a14.734,14.734,0,0,0,2.833,7.76.914.914,0,0,0,.987.3.959.959,0,0,0,.668-.836c.252-2.758,1.355-4.179,1.77-4.179s1.519,1.421,1.771,4.178a.94.94,0,0,0,1.655.534c1.793-2.265,4.237-8.2,1.839-11.17C14.9,4.7,12.555,5.675,11.373,6.557Zm5.5,3.311a14.024,14.024,0,0,1-2.68,7.38.228.228,0,0,1-.257.082.267.267,0,0,1-.187-.244c-.242-2.647-1.342-4.8-2.453-4.8s-2.21,2.153-2.452,4.8c-.045.273-.288.332-.444.163C6.839,15.362,4.434,9.533,6.524,6.987c1.97-2.171,5.228.592,5.714,1.2.3.333.808-.144.5-.464a8.051,8.051,0,0,0-.79-.727C14.285,5.274,17.084,6.327,16.872,9.868ZM9.215,8.379a1.158,1.158,0,0,0-.991.157c-.669.552-.465,1.593-.363,2.357a.342.342,0,0,1-.673.126c-.394-1.586.082-3.794,2.205-3.3A.342.342,0,0,1,9.215,8.379Z" data-name="dental treatment" id="dental_treatment"/></g></g></svg>