<svg xmlns="http://www.w3.org/2000/svg" viewBox="0 0 48 48" aria-label="Diente traspaso de datos">
  <path d="M28.71,10.5a9.7,9.7,0,0,0-7.17,3.28.74.74,0,0,1-1.08,0,9.7,9.7,0,0,0-7.17-3.28C7.61,10.5,3,15.66,3,22a12.6,12.6,0,0,0,1.77,6.5,16,16,0,0,1,2.31,6.35A32.43,32.43,0,0,0,10,45.06a2.47,2.47,0,0,0,2,1.43,2.37,2.37,0,0,0,2.56-2.36V43.3a6.67,6.67,0,0,1,3.08-5.74,6.43,6.43,0,0,1,6.7,0,6.67,6.67,0,0,1,3.08,5.74v.59a2.5,2.5,0,0,0,1.84,2.55,2.37,2.37,0,0,0,2.66-1.28,32.42,32.42,0,0,0,3-10.4,13,13,0,0,1,2-5.77A12.54,12.54,0,0,0,39,22C39,15.66,34.39,10.5,28.71,10.5Z" fill="#FFFFFF" stroke="#F17300" stroke-width="1.6" stroke-linejoin="round"/>
  <rect x="24" y="6" width="21" height="19.5" rx="3.4" fill="#F17300"/>
  <polygon points="34.50,9.75 36.34,11.32 38.74,11.51 38.93,13.91 40.50,15.75 38.93,17.59 38.74,19.99 36.34,20.18 34.50,21.75 32.66,20.18 30.26,19.99 30.07,17.59 28.50,15.75 30.07,13.91 30.26,11.51 32.66,11.32" fill="none" stroke="#FFFFFF" stroke-width="1.6" stroke-linejoin="round"/>
  <circle cx="34.5" cy="15.75" r="2.2" fill="none" stroke="#FFFFFF" stroke-width="1.6"/>
</svg>