<svg xmlns="http://www.w3.org/2000/svg" viewBox="0 0 48 48" aria-label="Diente informes">
  <path d="M28.71,10.5a9.7,9.7,0,0,0-7.17,3.28.74.74,0,0,1-1.08,0,9.7,9.7,0,0,0-7.17-3.28C7.61,10.5,3,15.66,3,22a12.6,12.6,0,0,0,1.77,6.5,16,16,0,0,1,2.31,6.35A32.43,32.43,0,0,0,10,45.06a2.47,2.47,0,0,0,2,1.43,2.37,2.37,0,0,0,2.56-2.36V43.3a6.67,6.67,0,0,1,3.08-5.74,6.43,6.43,0,0,1,6.7,0,6.67,6.67,0,0,1,3.08,5.74v.59a2.5,2.5,0,0,0,1.84,2.55,2.37,2.37,0,0,0,2.66-1.28,32.42,32.42,0,0,0,3-10.4,13,13,0,0,1,2-5.77A12.54,12.54,0,0,0,39,22C39,15.66,34.39,10.5,28.71,10.5Z" fill="#FFFFFF" stroke="#F17300" stroke-width="1.6" stroke-linejoin="round"/>
  <rect x="24" y="6" width="21" height="19.5" rx="3.4" fill="#F17300"/>
  <rect x="28.2" y="10.2" width="12.8" height="11.6" rx="1.4" fill="none" stroke="#FFFFFF" stroke-width="1.6" stroke-linecap="round" stroke-linejoin="round"/>
  <line x1="34.6" y1="10.2" x2="34.6" y2="21.8" stroke="#FFFFFF" stroke-width="1.6" stroke-linecap="round"/>
  <line x1="30.1" y1="13.3" x2="33.1" y2="13.3" stroke="#FFFFFF" stroke-width="1.6" stroke-linecap="round"/>
  <line x1="30.1" y1="16.0" x2="33.1" y2="16.0" stroke="#FFFFFF" stroke-width="1.6" stroke-linecap="round"/>
  <line x1="36.1" y1="13.3" x2="39.1" y2="13.3" stroke="#FFFFFF" stroke-width="1.6" stroke-linecap="round"/>
  <line x1="36.1" y1="16.0" x2="39.1" y2="16.0" stroke="#FFFFFF" stroke-width="1.6" stroke-linecap="round"/>
  <path d="M39.6 10.8v4l-1.4-.9-1.4.9v-4" fill="none" stroke="#FFFFFF" stroke-width="1.6" stroke-linecap="round" stroke-linejoin="round"/>
</svg>