<?xml version="1.0" ?><svg viewBox="0 0 22.577 22.59" xmlns="http://www.w3.org/2000/svg"><defs><style>.cls-1{fill:#1a171b;}</style></defs><g data-name="Layer 2" id="Layer_2"><g data-name="Layer 1" id="Layer_1-2"><path class="cls-1" d="M13.827,8.776a1.544,1.544,0,0,0-1.97,1.554,7.605,7.605,0,0,0,.122,1.766.342.342,0,1,1-.673.126c-.47-1.974.038-4.7,2.7-4.107A.342.342,0,0,1,13.827,8.776Zm5.7,10.259a.96.96,0,0,1-1.035.317,1.007,1.007,0,0,1-.7-.879c-.264-2.892-1.408-4.143-1.934-4.143s-1.668,1.252-1.932,4.145a1,1,0,0,1-.99.921.962.962,0,0,1-.745-.36,15.82,15.82,0,0,1-3.045-8.343c-.384-4.271,3.489-6.117,6.8-3.59a6.3,6.3,0,0,1,1.4-.787v-4.6A1.028,1.028,0,0,0,16.314.684H13.462V1.711a1.713,1.713,0,0,1-1.711,1.711H6.275A1.713,1.713,0,0,1,4.563,1.711V.684H1.711A1.029,1.029,0,0,0,.684,1.711V20.878a1.028,1.028,0,0,0,1.027,1.027h14.6c.841-.021,1.106-.754,1.027-1.482a.343.343,0,0,1,.685,0v.455a1.714,1.714,0,0,1-1.712,1.712H1.711A1.714,1.714,0,0,1,0,20.878V1.711A1.714,1.714,0,0,1,1.711,0h14.6a1.714,1.714,0,0,1,1.712,1.711V6.09a3.348,3.348,0,0,1,3.483.95C24.079,10.192,21.445,16.635,19.528,19.035ZM12.778.684H5.248V1.711A1.028,1.028,0,0,0,6.275,2.738h5.476a1.028,1.028,0,0,0,1.027-1.027Zm3.741,6.852a8.967,8.967,0,0,1,.877.8.342.342,0,1,1-.5.464c-.02-.021-2.008-2.143-4.07-2.186C7.192,7.057,10.8,16.4,12.72,18.6a.273.273,0,0,0,.3.1.316.316,0,0,0,.22-.286c.282-3.095,1.558-4.766,2.614-4.766s2.333,1.67,2.616,4.765a.314.314,0,0,0,.22.286.275.275,0,0,0,.3-.1,15.106,15.106,0,0,0,2.892-7.962C22.1,6.736,19.051,5.663,16.519,7.536Zm-11.7-.919H9.028a.343.343,0,0,0,0-.685H4.821A.343.343,0,0,0,4.821,6.617ZM3,5.932H2.539a.343.343,0,0,0,0,.685H3A.343.343,0,0,0,3,5.932Zm1.826,3.88H7.758a.343.343,0,0,0,0-.685H4.821A.343.343,0,0,0,4.821,9.812ZM3,9.127c-.279,0-.8-.081-.8.343s.52.338.8.342A.343.343,0,0,0,3,9.127Zm1.826,3.88H7.758a.343.343,0,0,0,0-.685H4.821A.343.343,0,0,0,4.821,13.007ZM3,12.322H2.539a.343.343,0,0,0,0,.685H3A.343.343,0,0,0,3,12.322ZM4.821,16.2H8.572a.342.342,0,0,0,0-.684H4.821A.342.342,0,0,0,4.821,16.2ZM3,15.517H2.539a.342.342,0,0,0,0,.684H3A.342.342,0,0,0,3,15.517ZM4.821,19.4H10.4a.342.342,0,0,0,0-.684H4.821A.342.342,0,0,0,4.821,19.4ZM3,18.712H2.539a.342.342,0,0,0,0,.684H3A.342.342,0,0,0,3,18.712Z" data-name="dental services" id="dental_services"/></g></g></svg>