<?xml version="1.0" ?><svg viewBox="0 0 22.589 22.578" xmlns="http://www.w3.org/2000/svg"><defs><style>.cls-1{fill:#1a171b;}</style></defs><g data-name="Layer 2" id="Layer_2"><g data-name="Layer 1" id="Layer_1-2"><path class="cls-1" d="M9.061,12.206a1.27,1.27,0,0,0-1.088.172c-.733.6-.514,1.733-.4,2.565a.342.342,0,1,1-.673.125c-.417-1.687.076-4.052,2.342-3.523A.342.342,0,0,1,9.061,12.206ZM7.339,2.286H2.928a.343.343,0,0,0,0,.685H7.339A.343.343,0,0,0,7.339,2.286Zm15.25,1.255V19.056a1.257,1.257,0,0,1-1.256,1.255H16.206c-.59.867-1.063,2.5-2.277,2.239-.937-.276-.674-1.542-.906-2.239H9.566c-.232.7.033,1.963-.905,2.239-1.211.263-1.69-1.374-2.278-2.239H1.255A1.256,1.256,0,0,1,0,19.056V1.259A1.256,1.256,0,0,1,1.255,0h6.4c1.03-.095,1.882,1.33,2.51,1.941a1.027,1.027,0,0,0,.763.34h10.4A1.257,1.257,0,0,1,22.589,3.541ZM12.855,19.626c-1.091-3.279-2.029-3.28-3.12,0ZM16.441,10.7c-1.55-1.682-3.659-.531-4.484.033a9,9,0,0,1,.875.8.342.342,0,1,1-.5.464c-.02-.021-2.008-2.143-4.07-2.185-5.631.436-2.025,9.778-.1,11.982a.274.274,0,0,0,.3.1.312.312,0,0,0,.22-.285c.78-6.8,4.446-6.8,5.23,0a.316.316,0,0,0,.22.286.275.275,0,0,0,.3-.1C16.144,19.7,18.7,13.556,16.441,10.7ZM21.9,5.709H16.37a1.032,1.032,0,0,0-.822.41c-.448.644-1.028,1.47-1.916,1.415H8.841c-.891.055-1.465-.77-1.917-1.414A1.03,1.03,0,0,0,6.1,5.709H.685V19.056a.57.57,0,0,0,.57.57h4.8c-1.037-2.693-2.573-6.771-.394-9.4C7.206,8.5,9.814,9.1,11.38,10.3c1.26-.948,3.777-2.005,5.565-.062,2.122,2.709.661,6.638-.405,9.387h4.793a.571.571,0,0,0,.571-.57Zm0-2.168a.571.571,0,0,0-.571-.57h-10.4c-1.031.092-1.88-1.327-2.51-1.942a1.027,1.027,0,0,0-.763-.34h-6.4a.57.57,0,0,0-.57.57V5.024H6.1a1.717,1.717,0,0,1,1.368.685c.334.415.732,1.2,1.37,1.141h4.791c.641.054,1.03-.725,1.369-1.141a1.719,1.719,0,0,1,1.369-.685H21.9Z" data-name="dental records" id="dental_records"/></g></g></svg>