<?xml version="1.0" ?><svg viewBox="0 0 22.589 22.575" xmlns="http://www.w3.org/2000/svg"><defs><style>.cls-1{fill:#1a171b;}</style></defs><g data-name="Layer 2" id="Layer_2"><g data-name="Layer 1" id="Layer_1-2"><path class="cls-1" d="M20.079,14.475V11.281a.343.343,0,1,1,.685,0v3.194a.343.343,0,0,1-.685,0Zm.342,1.769a.343.343,0,0,0,0-.685A.343.343,0,0,0,20.421,16.244ZM2.17,9.57a.345.345,0,0,0,.237-.589A.34.34,0,1,0,2.17,9.57Zm0,3.651a.343.343,0,0,0,0-.685A.343.343,0,0,0,2.17,13.221Zm0,3.651a.348.348,0,0,0,.241-.589A.341.341,0,1,0,2.17,16.872ZM22.589,4.892V20.864a1.714,1.714,0,0,1-1.711,1.711H1.711A1.714,1.714,0,0,1,0,20.864V4.892A1.714,1.714,0,0,1,1.711,3.18h3.65a.343.343,0,0,1,0,.685H4.335V21.891H20.878a1.029,1.029,0,0,0,1.027-1.027V4.892a1.029,1.029,0,0,0-1.027-1.027H19.053a.343.343,0,0,1,0-.685h1.825A1.714,1.714,0,0,1,22.589,4.892ZM3.651,3.865H1.711A1.028,1.028,0,0,0,.685,4.892V20.864a1.028,1.028,0,0,0,1.026,1.027h1.94ZM7.34.94c1.332-1.486,3.58-.994,4.939.038,1.1-.817,3.265-1.7,4.808-.027,2.224,2.788-.028,8.213-1.7,10.344a.9.9,0,0,1-1.575-.507c-.231-2.529-1.232-3.833-1.608-3.833s-1.377,1.3-1.608,3.834a.894.894,0,0,1-1.574.507C7.394,9.259,5.062,3.6,7.34.94Zm2.215,9.922c.137.142.323.089.363-.135.224-2.457,1.251-4.456,2.29-4.456s2.065,2,2.29,4.455a.221.221,0,0,0,.154.2.19.19,0,0,0,.209-.068,12.9,12.9,0,0,0,2.468-6.8c.187-3.2-2.312-4.212-4.473-2.65a7.457,7.457,0,0,1,.705.652.342.342,0,0,1-.5.464c-.436-.544-3.439-3.1-5.236-1.1C5.909,3.8,8.115,9.1,9.555,10.862ZM7.872,13.449h8.671a.342.342,0,0,0,0-.684H7.872A.342.342,0,0,0,7.872,13.449Zm6.122,1.94a.342.342,0,0,0-.342-.342H7.872a.342.342,0,0,0,0,.684h5.78A.342.342,0,0,0,13.994,15.389ZM9.925,17.328a1.483,1.483,0,0,1,0,2.966H9.013a1.483,1.483,0,0,1,0-2.966Zm0,.685H9.012a.8.8,0,0,0,0,1.6h.913a.8.8,0,1,0,0-1.6Zm4.564-.685H15.4a1.483,1.483,0,1,1,0,2.966h-.913A1.483,1.483,0,0,1,14.489,17.328Zm0,2.282H15.4a.8.8,0,0,0,0-1.6h-.913A.8.8,0,0,0,14.489,19.61Z" data-name="mobile contact" id="mobile_contact"/></g></g></svg>